
<svg width="19" height="19" viewBox="0 0 19 19" fill="none" xmlns="http://www.w3.org/2000/svg">
<g clip-path="url(#clip0_668_2642)">
<path d="M2.41165 17.8433C2.14675 17.7249 1.86121 17.6448 1.62727 17.4811C1.16971 17.1643 0.939214 16.6907 0.935774 16.1301C0.928893 14.1069 0.925453 12.0803 0.935774 10.0572C0.939214 9.12399 1.67199 8.39274 2.61119 8.34748C2.65591 8.34399 2.70407 8.34399 2.7488 8.34399C7.21771 8.34399 11.6901 8.34399 16.159 8.34399C16.9846 8.34399 17.6417 8.78971 17.8791 9.52792C17.9445 9.73337 17.9754 9.95971 17.9754 10.1756C17.9823 12.1186 17.9823 14.0617 17.9789 16.0047C17.9789 16.9623 17.4456 17.6169 16.5236 17.8154C16.5064 17.8189 16.4927 17.8328 16.4789 17.8398C11.7898 17.8433 7.10074 17.8433 2.41165 17.8433ZM9.45388 16.7986C11.6832 16.7986 13.9125 16.7986 16.1418 16.7986C16.6784 16.7986 16.9468 16.5305 16.9468 15.9873C16.9468 14.0547 16.9468 12.1221 16.9468 10.193C16.9468 9.66373 16.6716 9.38864 16.1521 9.38864C11.6866 9.38864 7.22115 9.38864 2.75568 9.38864C2.23276 9.38864 1.96097 9.66373 1.96097 10.193C1.96097 12.1256 1.96097 14.0582 1.96097 15.9873C1.96097 16.527 2.22932 16.7986 2.76256 16.7986C4.99529 16.7986 7.22459 16.7986 9.45388 16.7986Z" fill="#DEDEDE"/>
<path d="M13.0076 0.0146484C13.4101 0.24447 13.6612 0.624023 13.9089 0.993131C15.3125 3.10679 15.0511 5.94126 13.2897 7.75893C13.0523 8.00617 12.7289 8.02706 12.5122 7.81465C12.2954 7.59876 12.3058 7.29233 12.5431 7.04161C13.4445 6.08751 13.8539 4.94536 13.7575 3.63259C13.6819 2.59492 13.2656 1.70349 12.5535 0.951345C12.2301 0.610095 12.3126 0.220095 12.7392 0.0355413C12.7495 0.0320592 12.7599 0.0216127 12.7667 0.0146484C12.8459 0.0146484 12.925 0.0146484 13.0076 0.0146484Z" fill="#DEDEDE"/>
<path d="M6.16166 0.0146484C6.32335 0.0947377 6.47473 0.185273 6.52633 0.376791C6.5917 0.613577 6.50569 0.801613 6.34056 0.972238C5.71443 1.63036 5.32224 2.41036 5.19151 3.31572C4.99197 4.72251 5.37728 5.94822 6.32679 6.99983C6.41624 7.09733 6.49881 7.22269 6.53321 7.34804C6.59514 7.57438 6.47473 7.79724 6.27519 7.9017C6.06533 8.01313 5.82796 7.97483 5.64562 7.78679C5.1399 7.26795 4.73051 6.67947 4.48625 5.99697C3.72251 3.85894 4.08718 1.93331 5.60434 0.24447C5.69034 0.150452 5.81419 0.0912556 5.92084 0.0146484C5.99997 0.0146484 6.0791 0.0146484 6.16166 0.0146484Z" fill="#DEDEDE"/>
<path d="M11.0534 3.98773C11.0534 4.88264 10.3447 5.60345 9.46058 5.60693C8.57987 5.61389 7.8471 4.8722 7.85054 3.98077C7.85398 3.08934 8.57299 2.37202 9.45714 2.3755C10.3482 2.37898 11.0534 3.09282 11.0534 3.98773ZM9.46402 3.42014C9.14752 3.41666 8.8895 3.66389 8.88606 3.98077C8.87918 4.29068 9.1372 4.5588 9.45026 4.56577C9.76333 4.57273 10.0213 4.31854 10.0248 3.99818C10.0248 3.67434 9.78397 3.42363 9.46402 3.42014Z" fill="#DEDEDE"/>
<path d="M13.0114 3.99831C12.9977 4.85492 12.7053 5.6001 12.117 6.2234C11.8865 6.46715 11.5734 6.48804 11.3532 6.2826C11.133 6.07367 11.1365 5.76376 11.367 5.50956C12.1858 4.6042 12.1823 3.37849 11.3601 2.46269C11.1365 2.21197 11.1365 1.89858 11.3601 1.68965C11.5803 1.48769 11.8865 1.5051 12.1101 1.74537C12.7053 2.37563 13.0011 3.12778 13.0114 3.99831Z" fill="#DEDEDE"/>
<path d="M5.90335 3.90068C5.91367 3.12068 6.20609 2.3755 6.79782 1.7522C7.03176 1.50497 7.34138 1.48408 7.56156 1.69649C7.77485 1.90193 7.76797 2.22577 7.54436 2.473C6.73245 3.36443 6.73245 4.618 7.54436 5.50595C7.77141 5.75318 7.77829 6.07354 7.565 6.28247C7.34482 6.49488 7.02832 6.4705 6.79094 6.21979C6.21297 5.61042 5.89991 4.81997 5.90335 3.90068Z" fill="#DEDEDE"/>
<path d="M13.5995 14.7094C14.174 14.7094 14.7348 14.7094 15.2955 14.7094C15.5948 14.7094 15.8116 14.9044 15.8357 15.183C15.8597 15.4859 15.6464 15.7471 15.3403 15.7505C14.5765 15.7575 13.8162 15.7575 13.0525 15.7505C12.7669 15.7471 12.5571 15.5242 12.5571 15.2317C12.5536 13.811 12.5536 12.3903 12.5571 10.9661C12.5571 10.6631 12.7601 10.4403 13.0594 10.4368C13.8403 10.4263 14.6178 10.4263 15.3987 10.4368C15.7084 10.4403 15.9182 10.684 15.9079 10.9765C15.8976 11.2655 15.6808 11.4745 15.3747 11.4745C14.8483 11.478 14.3185 11.4745 13.7921 11.4745C13.7302 11.4745 13.6683 11.4745 13.596 11.4745C13.596 11.7565 13.596 12.0177 13.596 12.3032C13.9366 12.3032 14.2738 12.3032 14.6109 12.3032C14.7554 12.3032 14.8965 12.2997 15.041 12.3032C15.3403 12.3102 15.557 12.5261 15.5604 12.8151C15.5639 13.1111 15.3471 13.3409 15.0375 13.3444C14.5972 13.3513 14.1534 13.3479 13.713 13.3479C13.6786 13.3479 13.6442 13.3513 13.5995 13.3513C13.5995 13.804 13.5995 14.2463 13.5995 14.7094Z" fill="#DEDEDE"/>
<path d="M10.1211 13.3685C10.2449 12.9542 10.3688 12.5398 10.4926 12.1254C10.6199 11.7041 10.7438 11.2827 10.871 10.8614C10.9708 10.5341 11.2323 10.3739 11.5247 10.4609C11.8137 10.5445 11.9582 10.8335 11.8618 11.1574C11.449 12.5433 11.0362 13.9292 10.6233 15.3151C10.5373 15.6006 10.3653 15.7364 10.1039 15.7329C9.84241 15.7294 9.67728 15.5971 9.59127 15.3081C9.17844 13.9292 8.7656 12.5467 8.35621 11.1678C8.25988 10.8405 8.39406 10.555 8.6796 10.4644C8.96858 10.3739 9.24036 10.5306 9.33669 10.8579C9.59127 11.6936 9.83897 12.5293 10.0901 13.3685C10.1004 13.3651 10.1108 13.3651 10.1211 13.3685Z" fill="#DEDEDE"/>
<path d="M4.02836 14.7095C4.48935 14.7095 4.92283 14.7095 5.35974 14.7095C5.69689 14.7095 5.92395 14.9184 5.92739 15.2249C5.93083 15.5348 5.70377 15.7507 5.37006 15.7541C4.76802 15.7576 4.16597 15.7576 3.56392 15.7541C3.20957 15.7541 2.99628 15.5383 2.99628 15.1796C2.99628 13.7937 2.99628 12.4078 2.99628 11.0219C2.99628 10.6772 3.21989 10.4299 3.52264 10.4369C3.82194 10.4439 4.02836 10.6807 4.02836 11.0219C4.02836 12.1815 4.02836 13.341 4.02836 14.5006C4.02836 14.5633 4.02836 14.6259 4.02836 14.7095Z" fill="#DEDEDE"/>
<path d="M6.50195 13.0903C6.50195 12.4008 6.50195 11.7079 6.50195 11.0184C6.50195 10.6772 6.70837 10.4404 7.00767 10.4369C7.31042 10.4299 7.53403 10.6772 7.53403 11.0219C7.53403 12.4078 7.53403 13.7937 7.53403 15.1831C7.53403 15.4895 7.35514 15.7124 7.08336 15.7507C6.83566 15.789 6.58796 15.6218 6.52259 15.3676C6.50539 15.298 6.50195 15.2179 6.50195 15.1448C6.50195 14.4588 6.50195 13.7728 6.50195 13.0903Z" fill="#DEDEDE"/>
</g>
<defs>
<clipPath id="clip0_668_2642">
<rect width="17.1429" height="18" fill="white" transform="translate(0.928589 0.0146484)"/>
</clipPath>
</defs>
</svg>
