<svg xmlns="http://www.w3.org/2000/svg" width="31" height="31" viewBox="0 0 31 31" fill="none">
<rect x="0.5" y="0.00219727" width="30" height="30" rx="15" fill="white"/>
<g clip-path="url(#clip0_668_2487)">
<path d="M8.41165 23.8308C8.14675 23.7124 7.86121 23.6323 7.62727 23.4687C7.16971 23.1518 6.93921 22.6782 6.93577 22.1176C6.92889 20.0945 6.92545 18.0679 6.93577 16.0448C6.93921 15.1115 7.67199 14.3803 8.61119 14.335C8.65591 14.3315 8.70407 14.3315 8.7488 14.3315C13.2177 14.3315 17.6901 14.3315 22.159 14.3315C22.9846 14.3315 23.6417 14.7773 23.8791 15.5155C23.9445 15.7209 23.9754 15.9473 23.9754 16.1631C23.9823 18.1062 23.9823 20.0492 23.9789 21.9923C23.9789 22.9498 23.4456 23.6045 22.5236 23.803C22.5064 23.8065 22.4927 23.8204 22.4789 23.8273C17.7898 23.8308 13.1007 23.8308 8.41165 23.8308ZM15.4539 22.7862C17.6832 22.7862 19.9125 22.7862 22.1418 22.7862C22.6784 22.7862 22.9468 22.5181 22.9468 21.9748C22.9468 20.0423 22.9468 18.1097 22.9468 16.1806C22.9468 15.6513 22.6716 15.3762 22.1521 15.3762C17.6866 15.3762 13.2211 15.3762 8.75568 15.3762C8.23276 15.3762 7.96097 15.6513 7.96097 16.1806C7.96097 18.1131 7.96097 20.0457 7.96097 21.9748C7.96097 22.5146 8.22932 22.7862 8.76256 22.7862C10.9953 22.7862 13.2246 22.7862 15.4539 22.7862Z" fill="#080808"/>
<path d="M19.0076 6.0022C19.4101 6.23202 19.6612 6.61157 19.9089 6.98068C21.3125 9.09434 21.0511 11.9288 19.2897 13.7465C19.0523 13.9937 18.7289 14.0146 18.5122 13.8022C18.2954 13.5863 18.3058 13.2799 18.5431 13.0292C19.4445 12.0751 19.8539 10.9329 19.7575 9.62014C19.6819 8.58247 19.2656 7.69104 18.5535 6.93889C18.2301 6.59764 18.3126 6.20764 18.7392 6.02309C18.7495 6.01961 18.7599 6.00916 18.7667 6.0022C18.8459 6.0022 18.925 6.0022 19.0076 6.0022Z" fill="#080808"/>
<path d="M12.1617 6.0022C12.3234 6.08229 12.4747 6.17282 12.5263 6.36434C12.5917 6.60113 12.5057 6.78916 12.3406 6.95979C11.7144 7.61791 11.3222 8.39791 11.1915 9.30327C10.992 10.7101 11.3773 11.9358 12.3268 12.9874C12.4162 13.0849 12.4988 13.2102 12.5332 13.3356C12.5951 13.5619 12.4747 13.7848 12.2752 13.8893C12.0653 14.0007 11.828 13.9624 11.6456 13.7743C11.1399 13.2555 10.7305 12.667 10.4863 11.9845C9.72251 9.84648 10.0872 7.92086 11.6043 6.23202C11.6903 6.138 11.8142 6.0788 11.9208 6.0022C12 6.0022 12.0791 6.0022 12.1617 6.0022Z" fill="#080808"/>
<path d="M17.0534 9.97528C17.0534 10.8702 16.3447 11.591 15.4606 11.5945C14.5799 11.6014 13.8471 10.8597 13.8505 9.96832C13.854 9.07689 14.573 8.35957 15.4571 8.36305C16.3482 8.36653 17.0534 9.08037 17.0534 9.97528ZM15.464 9.40769C15.1475 9.40421 14.8895 9.65144 14.8861 9.96832C14.8792 10.2782 15.1372 10.5464 15.4503 10.5533C15.7633 10.5603 16.0213 10.3061 16.0248 9.98573C16.0248 9.66189 15.784 9.41117 15.464 9.40769Z" fill="#080808"/>
<path d="M19.0114 9.98586C18.9977 10.8425 18.7053 11.5876 18.117 12.211C17.8865 12.4547 17.5734 12.4756 17.3532 12.2701C17.133 12.0612 17.1365 11.7513 17.367 11.4971C18.1858 10.5918 18.1823 9.36604 17.3601 8.45024C17.1365 8.19952 17.1365 7.88613 17.3601 7.6772C17.5803 7.47524 17.8865 7.49265 18.1101 7.73291C18.7053 8.36318 19.0011 9.11532 19.0114 9.98586Z" fill="#080808"/>
<path d="M11.9033 9.88823C11.9137 9.10823 12.2061 8.36305 12.7978 7.73975C13.0318 7.49252 13.3414 7.47162 13.5616 7.68404C13.7749 7.88948 13.768 8.21332 13.5444 8.46055C12.7325 9.35198 12.7325 10.6056 13.5444 11.4935C13.7714 11.7407 13.7783 12.0611 13.565 12.27C13.3448 12.4824 13.0283 12.4581 12.7909 12.2073C12.213 11.598 11.8999 10.8075 11.9033 9.88823Z" fill="#080808"/>
<path d="M19.5995 20.6969C20.174 20.6969 20.7348 20.6969 21.2955 20.6969C21.5948 20.6969 21.8116 20.8919 21.8357 21.1705C21.8597 21.4734 21.6464 21.7346 21.3403 21.7381C20.5765 21.7451 19.8162 21.7451 19.0525 21.7381C18.7669 21.7346 18.5571 21.5118 18.5571 21.2193C18.5536 19.7985 18.5536 18.3778 18.5571 16.9536C18.5571 16.6507 18.7601 16.4278 19.0594 16.4243C19.8403 16.4139 20.6178 16.4139 21.3987 16.4243C21.7084 16.4278 21.9182 16.6716 21.9079 16.9641C21.8976 17.2531 21.6808 17.462 21.3747 17.462C20.8483 17.4655 20.3185 17.462 19.7921 17.462C19.7302 17.462 19.6683 17.462 19.596 17.462C19.596 17.7441 19.596 18.0052 19.596 18.2908C19.9366 18.2908 20.2738 18.2908 20.6109 18.2908C20.7554 18.2908 20.8965 18.2873 21.041 18.2908C21.3403 18.2977 21.557 18.5136 21.5604 18.8026C21.5639 19.0986 21.3471 19.3284 21.0375 19.3319C20.5972 19.3389 20.1534 19.3354 19.713 19.3354C19.6786 19.3354 19.6442 19.3389 19.5995 19.3389C19.5995 19.7916 19.5995 20.2338 19.5995 20.6969Z" fill="#080808"/>
<path d="M16.1211 19.3561C16.2449 18.9417 16.3688 18.5273 16.4926 18.113C16.6199 17.6916 16.7438 17.2703 16.871 16.8489C16.9708 16.5216 17.2323 16.3614 17.5247 16.4485C17.8137 16.5321 17.9582 16.8211 17.8618 17.1449C17.449 18.5308 17.0362 19.9167 16.6233 21.3026C16.5373 21.5881 16.3653 21.7239 16.1039 21.7205C15.8424 21.717 15.6773 21.5847 15.5913 21.2956C15.1784 19.9167 14.7656 18.5343 14.3562 17.1554C14.2599 16.828 14.3941 16.5425 14.6796 16.452C14.9686 16.3614 15.2404 16.5181 15.3367 16.8455C15.5913 17.6812 15.839 18.5169 16.0901 19.3561C16.1004 19.3526 16.1108 19.3526 16.1211 19.3561Z" fill="#080808"/>
<path d="M10.0284 20.697C10.4894 20.697 10.9228 20.697 11.3597 20.697C11.6969 20.697 11.9239 20.906 11.9274 21.2124C11.9308 21.5223 11.7038 21.7382 11.3701 21.7417C10.768 21.7452 10.166 21.7452 9.56392 21.7417C9.20957 21.7417 8.99628 21.5258 8.99628 21.1671C8.99628 19.7812 8.99628 18.3954 8.99628 17.0095C8.99628 16.6647 9.21989 16.4175 9.52264 16.4245C9.82194 16.4314 10.0284 16.6682 10.0284 17.0095C10.0284 18.169 10.0284 19.3286 10.0284 20.4881C10.0284 20.5508 10.0284 20.6135 10.0284 20.697Z" fill="#080808"/>
<path d="M12.502 19.0779C12.502 18.3884 12.502 17.6954 12.502 17.006C12.502 16.6647 12.7084 16.4279 13.0077 16.4245C13.3104 16.4175 13.534 16.6647 13.534 17.0095C13.534 18.3954 13.534 19.7812 13.534 21.1706C13.534 21.4771 13.3551 21.6999 13.0834 21.7382C12.8357 21.7765 12.588 21.6094 12.5226 21.3552C12.5054 21.2855 12.502 21.2054 12.502 21.1323C12.502 20.4463 12.502 19.7604 12.502 19.0779Z" fill="#080808"/>
</g>
<defs>
<clipPath id="clip0_668_2487">
<rect width="17.1429" height="18" fill="white" transform="translate(6.92859 6.0022)"/>
</clipPath>
</defs>
</svg>