<svg width="13" height="19" viewBox="0 0 13 19" fill="none" xmlns="http://www.w3.org/2000/svg">
<path d="M7.07003 0.00195313C7.4169 0.0957031 7.78721 0.142577 8.11065 0.28789C9.55909 0.930077 10.3513 2.05976 10.3982 3.63945C10.445 5.33633 10.4216 7.03789 10.4075 8.73477C10.3888 10.6895 8.75284 12.3066 6.79815 12.3441C6.09034 12.3582 5.3919 12.3207 4.74503 11.9973C3.38565 11.3129 2.64503 10.2066 2.6169 8.6832C2.58409 7.01914 2.60284 5.35508 2.61221 3.6957C2.62159 1.83008 3.99971 0.283204 5.85128 0.0347662C5.88409 0.0300787 5.9169 0.0160145 5.94971 0.00663948C6.32003 0.00195198 6.69503 0.00195313 7.07003 0.00195313ZM3.67159 6.71445C3.67159 7.12226 3.67159 7.51133 3.67159 7.8957C3.69503 7.90039 3.7044 7.90976 3.71378 7.90976C3.9669 7.90976 4.21534 7.90976 4.46846 7.90976C4.82471 7.90976 5.06377 8.12539 5.06377 8.43945C5.06377 8.75352 4.82471 8.96445 4.46378 8.96445C4.20596 8.96445 3.95284 8.96445 3.68565 8.96445C3.69503 9.03476 3.69034 9.08633 3.7044 9.13789C3.94346 10.1785 4.56221 10.8863 5.59346 11.1723C5.95909 11.2754 6.35753 11.2754 6.7419 11.2754C7.89034 11.2754 8.90753 10.5066 9.24034 9.41446C9.28253 9.27383 9.30597 9.12383 9.33878 8.95977C9.04815 8.95977 8.79503 8.95977 8.53722 8.95977C8.19034 8.95977 7.95597 8.74883 7.95128 8.43945C7.94659 8.12539 8.18565 7.90508 8.53722 7.90508C8.8044 7.90508 9.07159 7.90508 9.34346 7.90508C9.34346 7.49726 9.34346 7.1082 9.34346 6.70976C8.87003 6.70976 8.40596 6.70976 7.94659 6.70976C7.62315 6.70976 7.38878 6.48008 7.38878 6.18008C7.38878 5.88008 7.62784 5.65976 7.95128 5.65508C8.35909 5.65039 8.77159 5.65508 9.1794 5.65508C9.23565 5.65508 9.2919 5.65508 9.34346 5.65508C9.34346 5.24258 9.34346 4.8582 9.34346 4.45976C9.0669 4.45976 8.79971 4.45976 8.53252 4.45976C8.19034 4.45976 7.95128 4.24414 7.95128 3.93945C7.94659 3.62539 8.19034 3.40977 8.5419 3.40977C8.66847 3.40977 8.79971 3.40977 8.92628 3.40977C9.05753 3.40977 9.18878 3.40977 9.32003 3.40977C9.32003 3.3582 9.32003 3.33476 9.32003 3.31133C9.32003 3.28789 9.31534 3.26445 9.31065 3.24101C9.11378 2.31758 8.59815 1.65195 7.73565 1.26289C7.29034 1.06133 6.8169 1.04727 6.34346 1.05195C5.55596 1.05664 4.89502 1.33789 4.36065 1.91914C3.97627 2.33633 3.75127 2.82852 3.68096 3.40977C3.9669 3.40977 4.24346 3.40977 4.51534 3.40977C4.74034 3.40977 4.90909 3.51289 5.00753 3.71445C5.17159 4.06133 4.92784 4.45039 4.53409 4.45976C4.24346 4.46914 3.95284 4.45976 3.6669 4.45976C3.6669 4.87226 3.6669 5.26133 3.6669 5.65508C4.11221 5.65508 4.54815 5.65508 4.9794 5.65508C5.0544 5.65508 5.13409 5.65508 5.2044 5.66914C5.4669 5.73008 5.64034 5.96914 5.6169 6.22696C5.59346 6.49883 5.37315 6.70508 5.08253 6.70976C4.62315 6.71914 4.1544 6.71445 3.67159 6.71445Z" fill="#DEDEDE"/>
<path d="M7.04637 14.5802C7.04168 14.6083 7.03699 14.6271 7.03699 14.6505C7.03699 15.4052 7.03699 16.1599 7.03699 16.9474C7.10262 16.9474 7.16356 16.9474 7.22449 16.9474C8.08699 16.9474 8.94481 16.9474 9.80731 16.9474C10.1682 16.9474 10.4073 17.1583 10.4073 17.4677C10.412 17.7864 10.1682 18.0021 9.79793 18.0021C7.59949 18.0021 5.40574 18.0021 3.2073 18.0021C2.84637 18.0021 2.6073 17.7958 2.60261 17.4818C2.59793 17.163 2.84168 16.9474 3.21199 16.9474C4.12605 16.9474 5.04012 16.9474 5.96356 16.9474C5.96356 16.1552 5.96356 15.3677 5.96356 14.6224C5.42449 14.4818 4.88074 14.3974 4.37918 14.2005C2.14793 13.3239 0.826053 11.688 0.41824 9.32082C0.371365 9.04895 0.361989 8.77239 0.352614 8.50051C0.338552 8.15832 0.563552 7.91926 0.868239 7.91457C1.17761 7.90989 1.39324 8.14426 1.40262 8.48645C1.45418 10.2161 2.17137 11.6083 3.57762 12.6114C6.63387 14.7864 10.9651 12.9396 11.5276 9.23176C11.5651 8.98801 11.5792 8.74426 11.5932 8.49582C11.6073 8.14426 11.8229 7.9052 12.137 7.91457C12.4417 7.92395 12.6526 8.16301 12.6479 8.5052C12.6292 11.3458 10.5948 13.8489 7.81043 14.4489C7.57137 14.5005 7.31824 14.5333 7.04637 14.5802Z" fill="#DEDEDE"/>
</svg>
