<svg xmlns="http://www.w3.org/2000/svg" width="31" height="31" viewBox="0 0 31 31" fill="none">
<rect x="0.35199" y="0.0102539" width="30.296" height="30.0001" rx="15.0001" fill="white"/>
<path d="M16.07 6.01025C16.4169 6.104 16.7872 6.15088 17.1106 6.29619C18.5591 6.93838 19.3513 8.06807 19.3982 9.64775C19.445 11.3446 19.4216 13.0462 19.4075 14.7431C19.3888 16.6978 17.7528 18.3149 15.7981 18.3524C15.0903 18.3665 14.3919 18.329 13.745 18.0056C12.3857 17.3212 11.645 16.2149 11.6169 14.6915C11.5841 13.0274 11.6028 11.3634 11.6122 9.704C11.6216 7.83838 12.9997 6.2915 14.8513 6.04307C14.8841 6.03838 14.9169 6.02432 14.9497 6.01494C15.32 6.01025 15.695 6.01025 16.07 6.01025ZM12.6716 12.7228C12.6716 13.1306 12.6716 13.5196 12.6716 13.904C12.695 13.9087 12.7044 13.9181 12.7138 13.9181C12.9669 13.9181 13.2153 13.9181 13.4685 13.9181C13.8247 13.9181 14.0638 14.1337 14.0638 14.4478C14.0638 14.7618 13.8247 14.9728 13.4638 14.9728C13.206 14.9728 12.9528 14.9728 12.6857 14.9728C12.695 15.0431 12.6903 15.0946 12.7044 15.1462C12.9435 16.1868 13.5622 16.8946 14.5935 17.1806C14.9591 17.2837 15.3575 17.2837 15.7419 17.2837C16.8903 17.2837 17.9075 16.5149 18.2403 15.4228C18.2825 15.2821 18.306 15.1321 18.3388 14.9681C18.0482 14.9681 17.795 14.9681 17.5372 14.9681C17.1903 14.9681 16.956 14.7571 16.9513 14.4478C16.9466 14.1337 17.1857 13.9134 17.5372 13.9134C17.8044 13.9134 18.0716 13.9134 18.3435 13.9134C18.3435 13.5056 18.3435 13.1165 18.3435 12.7181C17.87 12.7181 17.406 12.7181 16.9466 12.7181C16.6231 12.7181 16.3888 12.4884 16.3888 12.1884C16.3888 11.8884 16.6278 11.6681 16.9513 11.6634C17.3591 11.6587 17.7716 11.6634 18.1794 11.6634C18.2357 11.6634 18.2919 11.6634 18.3435 11.6634C18.3435 11.2509 18.3435 10.8665 18.3435 10.4681C18.0669 10.4681 17.7997 10.4681 17.5325 10.4681C17.1903 10.4681 16.9513 10.2524 16.9513 9.94775C16.9466 9.63369 17.1903 9.41807 17.5419 9.41807C17.6685 9.41807 17.7997 9.41807 17.9263 9.41807C18.0575 9.41807 18.1888 9.41807 18.32 9.41807C18.32 9.3665 18.32 9.34307 18.32 9.31963C18.32 9.29619 18.3153 9.27275 18.3107 9.24932C18.1138 8.32588 17.5981 7.66026 16.7356 7.27119C16.2903 7.06963 15.8169 7.05557 15.3435 7.06026C14.556 7.06494 13.895 7.34619 13.3606 7.92744C12.9763 8.34463 12.7513 8.83682 12.681 9.41807C12.9669 9.41807 13.2435 9.41807 13.5153 9.41807C13.7403 9.41807 13.9091 9.52119 14.0075 9.72275C14.1716 10.0696 13.9278 10.4587 13.5341 10.4681C13.2435 10.4774 12.9528 10.4681 12.6669 10.4681C12.6669 10.8806 12.6669 11.2696 12.6669 11.6634C13.1122 11.6634 13.5482 11.6634 13.9794 11.6634C14.0544 11.6634 14.1341 11.6634 14.2044 11.6774C14.4669 11.7384 14.6403 11.9774 14.6169 12.2353C14.5935 12.5071 14.3732 12.7134 14.0825 12.7181C13.6232 12.7274 13.1544 12.7228 12.6716 12.7228Z" fill="#080808"/>
<path d="M16.0464 20.5885C16.0417 20.6166 16.037 20.6354 16.037 20.6588C16.037 21.4135 16.037 22.1682 16.037 22.9557C16.1026 22.9557 16.1636 22.9557 16.2245 22.9557C17.087 22.9557 17.9448 22.9557 18.8073 22.9557C19.1682 22.9557 19.4073 23.1666 19.4073 23.476C19.412 23.7947 19.1682 24.0104 18.7979 24.0104C16.5995 24.0104 14.4057 24.0104 12.2073 24.0104C11.8464 24.0104 11.6073 23.8041 11.6026 23.4901C11.5979 23.1713 11.8417 22.9557 12.212 22.9557C13.1261 22.9557 14.0401 22.9557 14.9636 22.9557C14.9636 22.1635 14.9636 21.376 14.9636 20.6307C14.4245 20.4901 13.8807 20.4057 13.3792 20.2088C11.1479 19.3322 9.82605 17.6963 9.41824 15.3291C9.37137 15.0572 9.36199 14.7807 9.35261 14.5088C9.33855 14.1666 9.56355 13.9276 9.86824 13.9229C10.1776 13.9182 10.3932 14.1526 10.4026 14.4947C10.4542 16.2244 11.1714 17.6166 12.5776 18.6197C15.6339 20.7947 19.9651 18.9479 20.5276 15.2401C20.5651 14.9963 20.5792 14.7526 20.5932 14.5041C20.6073 14.1526 20.8229 13.9135 21.137 13.9229C21.4417 13.9322 21.6526 14.1713 21.6479 14.5135C21.6292 17.3541 19.5948 19.8572 16.8104 20.4572C16.5714 20.5088 16.3182 20.5416 16.0464 20.5885Z" fill="#080808"/>
</svg>