<svg width="19" height="19" viewBox="0 0 19 19" fill="none" xmlns="http://www.w3.org/2000/svg">
<path d="M0.499939 13.1166C0.640564 12.8133 0.882263 12.7253 1.20746 12.7253C6.73578 12.7297 12.2685 12.7297 17.7968 12.7297C17.8671 12.7297 17.9374 12.7253 18.0078 12.7341C18.289 12.7561 18.4999 12.9847 18.4955 13.2616C18.4955 13.5341 18.2846 13.7671 18.0034 13.7847C17.7617 13.7979 17.5244 13.7935 17.2827 13.7847C17.1772 13.7803 17.1157 13.8155 17.0585 13.9078C16.2631 15.1341 15.226 16.11 13.9516 16.822C12.2553 17.7715 10.4404 18.1539 8.50677 17.9517C6.7182 17.7627 5.13177 17.0814 3.7431 15.9385C3.04877 15.3671 2.4599 14.7078 1.97211 13.9517C1.89301 13.833 1.8139 13.7671 1.66449 13.7847C1.51508 13.8023 1.36127 13.7759 1.20746 13.7891C0.882263 13.8198 0.640564 13.7056 0.499939 13.3979C0.499939 13.3056 0.499939 13.2089 0.499939 13.1166ZM10.0009 13.7891C10.0009 14.8264 10.0009 15.8462 10.0009 16.9012C11.5258 16.3693 12.2685 15.1517 12.8881 13.7891C11.9125 13.7891 10.9633 13.7891 10.0009 13.7891ZM6.12494 13.7935C6.40619 14.633 7.09613 15.6792 7.73334 16.2286C8.08051 16.5275 8.46283 16.7737 8.92865 16.8748C8.92865 15.8462 8.92865 14.822 8.92865 13.7935C7.99261 13.7935 7.06537 13.7935 6.12494 13.7935ZM6.28754 16.2638C6.04584 15.8814 5.78656 15.5122 5.57562 15.1166C5.36469 14.7209 5.20648 14.299 5.01312 13.8902C4.99115 13.8418 4.90326 13.7935 4.84613 13.7891C4.40668 13.7803 3.96722 13.7847 3.53217 13.7847C3.41351 13.7847 3.29486 13.7847 3.16302 13.7847C3.69037 14.6594 5.31195 15.9385 6.28754 16.2638ZM12.7211 16.2594C13.9516 15.7187 14.9975 14.9012 15.8588 13.7847C15.2524 13.7847 14.6767 13.7803 14.1054 13.7891C14.0615 13.7891 13.9999 13.8506 13.978 13.8946C13.8681 14.1319 13.789 14.3869 13.6616 14.6198C13.3583 15.1781 13.0287 15.7231 12.7211 16.2594Z" fill="#DEDEDE"/>
<path d="M10.0273 0C10.3525 0.043956 10.6733 0.0835165 10.9985 0.136264C12.6332 0.413187 14.0834 1.09451 15.3535 2.15824C16.0082 2.70769 16.5707 3.34066 17.0322 4.06154C17.1113 4.18462 17.1992 4.23297 17.3442 4.22418C17.5463 4.21099 17.7529 4.21538 17.9594 4.21978C18.2714 4.22857 18.4999 4.45275 18.4999 4.74725C18.4999 5.04176 18.267 5.26154 17.955 5.27033C17.9023 5.27033 17.8495 5.27033 17.7968 5.27033C12.2685 5.27033 6.74017 5.27033 1.21185 5.27473C0.886658 5.27473 0.644958 5.18681 0.504333 4.88352C0.504333 4.79121 0.504333 4.69451 0.504333 4.6022C0.644958 4.2989 0.886658 4.18022 1.21185 4.21538C1.31732 4.22418 1.42279 4.2022 1.52826 4.21978C1.77875 4.25934 1.91498 4.14506 2.06 3.93846C3.44427 1.92527 5.34271 0.663736 7.74213 0.171429C8.13763 0.0923077 8.53754 0.0571429 8.93744 0C9.30219 0 9.66254 0 10.0273 0ZM10.0053 1.12967C10.0053 2.16703 10.0053 3.19121 10.0053 4.20659C10.9677 4.20659 11.9169 4.20659 12.8793 4.20659C12.4882 3.27473 11.9828 2.43517 11.2226 1.78022C10.871 1.47692 10.4799 1.23516 10.0053 1.12967ZM8.92865 4.21538C8.92865 3.17802 8.92865 2.15824 8.92865 1.13407C7.65424 1.39341 6.51166 3.06813 6.14252 4.21538C7.06537 4.21538 7.98822 4.21538 8.92865 4.21538ZM3.14105 4.21978C3.75189 4.21978 4.31879 4.22418 4.88568 4.21538C4.93402 4.21538 5.00433 4.14066 5.0307 4.08352C5.32953 3.49451 5.61078 2.9011 5.9184 2.31648C6.02386 2.11429 6.17767 1.93846 6.34027 1.70549C5.03949 2.28571 3.99799 3.1033 3.14105 4.21978ZM12.6772 1.74506C13.2441 2.47473 13.6572 3.28352 13.9955 4.13626C14.0131 4.18022 14.101 4.21538 14.1581 4.21538C14.6855 4.21978 15.2128 4.21978 15.7402 4.21978C15.7709 4.21978 15.8017 4.21099 15.85 4.20659C14.9931 3.0989 13.9472 2.28132 12.6772 1.74506Z" fill="#DEDEDE"/>
<path d="M0.499939 6.78672C0.552673 6.71199 0.592224 6.62408 0.658142 6.55815C0.926209 6.29001 1.3349 6.36913 1.51947 6.72518C1.84906 7.37573 2.17426 8.03067 2.50385 8.68562C2.53021 8.73397 2.55658 8.78232 2.61371 8.82628C2.61371 8.76913 2.61371 8.71639 2.61371 8.65924C2.61371 8.09661 2.61371 7.53397 2.61371 6.97133C2.61371 6.62848 2.83344 6.39551 3.14105 6.39551C3.44867 6.39551 3.664 6.63287 3.664 6.97573C3.664 8.34716 3.664 9.71859 3.664 11.09C3.664 11.3933 3.51019 11.5955 3.24213 11.657C3.00043 11.7098 2.77631 11.5911 2.64447 11.3318C2.31928 10.6856 1.99408 10.0351 1.66888 9.38452C1.64252 9.33177 1.61615 9.28342 1.56781 9.19111C1.56342 9.28342 1.55463 9.33177 1.55463 9.38012C1.55463 9.94276 1.55463 10.5054 1.55463 11.068C1.55463 11.3889 1.40521 11.5955 1.13715 11.657C0.886658 11.7142 0.671326 11.5911 0.526306 11.3054C0.521912 11.2966 0.508728 11.2922 0.499939 11.2834C0.499939 9.78891 0.499939 8.28562 0.499939 6.78672Z" fill="#DEDEDE"/>
<path d="M12.5453 9.57811C12.7607 8.71658 12.976 7.85504 13.1913 6.9935C13.2089 6.92757 13.2221 6.85724 13.2441 6.7913C13.3364 6.50119 13.6132 6.34295 13.8857 6.41768C14.1669 6.4968 14.3295 6.76493 14.2592 7.05943C14.0922 7.74075 13.9208 8.42207 13.7494 9.10339C13.5737 9.80669 13.4023 10.51 13.2221 11.2133C13.1122 11.644 12.6684 11.8111 12.3608 11.543C12.2817 11.4726 12.2245 11.3715 12.1718 11.2704C12.0004 10.9451 11.8378 10.6111 11.6752 10.2814C11.6708 10.2726 11.6576 10.2682 11.6357 10.2462C11.6093 10.2902 11.5829 10.3298 11.561 10.3737C11.4028 10.6858 11.249 11.0023 11.0864 11.3144C10.9545 11.5737 10.7612 11.688 10.5326 11.6616C10.2909 11.6309 10.1283 11.4814 10.0624 11.2045C9.71965 9.83746 9.37688 8.47042 9.0385 7.10339C8.95501 6.75614 9.10881 6.48361 9.41643 6.40449C9.70647 6.33416 9.97454 6.51877 10.058 6.85284C10.269 7.6968 10.4799 8.54515 10.6908 9.3891C10.704 9.45064 10.7216 9.50779 10.7524 9.61768C10.8754 9.37152 10.9809 9.16932 11.082 8.96273C11.1962 8.71658 11.3368 8.50559 11.6401 8.50559C11.9477 8.50559 12.0839 8.72097 12.1982 8.96713C12.2949 9.17372 12.4003 9.37152 12.5014 9.57811C12.5234 9.58251 12.5365 9.57811 12.5453 9.57811Z" fill="#DEDEDE"/>
<path d="M5.78217 9.56486C5.78217 9.9253 5.78217 10.2638 5.78217 10.6198C5.85248 10.6198 5.914 10.6198 5.97552 10.6198C6.43695 10.6198 6.90277 10.6154 7.3642 10.6242C7.65863 10.6286 7.87836 10.8572 7.88275 11.1385C7.88715 11.4198 7.67181 11.666 7.38178 11.6704C6.66107 11.6791 5.94037 11.6791 5.21967 11.6704C4.91205 11.666 4.71869 11.4286 4.71869 11.0901C4.71869 9.7231 4.71869 8.36046 4.71869 6.99343C4.71869 6.98904 4.71869 6.98024 4.71869 6.97585C4.72308 6.6198 4.93402 6.40442 5.28558 6.40003C5.96674 6.39563 6.64349 6.39563 7.32465 6.40003C7.64984 6.40003 7.88275 6.6286 7.88275 6.93189C7.87836 7.23079 7.64545 7.45057 7.31586 7.45497C6.86322 7.45937 6.41498 7.45497 5.96234 7.45497C5.90521 7.45497 5.84808 7.45497 5.78217 7.45497C5.78217 7.80662 5.78217 8.14508 5.78217 8.50992C5.8349 8.50992 5.89203 8.50992 5.94476 8.50992C6.3974 8.50992 6.84564 8.50992 7.29828 8.50992C7.64105 8.50992 7.87836 8.7253 7.87836 9.03299C7.87836 9.34068 7.64545 9.56046 7.30267 9.56046C6.8017 9.56486 6.30072 9.56486 5.78217 9.56486Z" fill="#DEDEDE"/>
<path d="M16.8827 6.3999C17.7748 6.3999 18.4867 7.1032 18.4999 7.96034C18.5043 8.24606 18.289 8.48342 18.0121 8.5054C17.7265 8.52737 17.476 8.31639 17.454 8.01748C17.4364 7.78012 17.3486 7.59551 17.1288 7.4988C16.9267 7.41089 16.7333 7.44606 16.5751 7.59111C16.4169 7.73617 16.3598 7.92078 16.4257 8.13177C16.496 8.35595 16.6586 8.48342 16.8871 8.501C17.1816 8.52298 17.4628 8.58012 17.7265 8.72957C18.2934 9.05485 18.601 9.74496 18.4692 10.4175C18.3461 11.0373 17.7924 11.5647 17.1772 11.6439C16.2148 11.7713 15.4281 11.1384 15.349 10.1713C15.3227 9.85045 15.5248 9.59111 15.8281 9.56474C16.1269 9.53836 16.3686 9.75814 16.3993 10.079C16.4345 10.4483 16.7201 10.6768 17.0409 10.6021C17.2958 10.5406 17.4672 10.3164 17.454 10.0614C17.4408 9.79331 17.2387 9.58232 16.9574 9.56474C16.5663 9.54276 16.206 9.44166 15.9072 9.17792C15.4238 8.74276 15.2392 8.2065 15.4106 7.57792C15.5864 6.92298 16.0302 6.53617 16.7026 6.42188C16.7685 6.41309 16.8432 6.4043 16.8827 6.3999Z" fill="#DEDEDE"/>
</svg>
