<svg xmlns="http://www.w3.org/2000/svg" width="31" height="31" viewBox="0 0 31 31" fill="none">
<rect x="0.499939" y="0.0124512" width="30.0001" height="30.0042" rx="15" fill="white"/>
<path d="M6.49994 19.129C6.64056 18.8257 6.88226 18.7378 7.20746 18.7378C12.7358 18.7422 18.2685 18.7422 23.7968 18.7422C23.8671 18.7422 23.9374 18.7378 24.0078 18.7466C24.289 18.7686 24.4999 18.9971 24.4955 19.2741C24.4955 19.5466 24.2846 19.7796 24.0034 19.7971C23.7617 19.8103 23.5244 19.8059 23.2827 19.7971C23.1772 19.7927 23.1157 19.8279 23.0585 19.9202C22.2631 21.1466 21.226 22.1224 19.9516 22.8345C18.2553 23.7839 16.4404 24.1664 14.5068 23.9642C12.7182 23.7752 11.1318 23.0938 9.7431 21.951C9.04877 21.3796 8.4599 20.7202 7.97211 19.9642C7.89301 19.8455 7.8139 19.7796 7.66449 19.7971C7.51508 19.8147 7.36127 19.7883 7.20746 19.8015C6.88226 19.8323 6.64056 19.718 6.49994 19.4103C6.49994 19.318 6.49994 19.2213 6.49994 19.129ZM16.0009 19.8015C16.0009 20.8389 16.0009 21.8587 16.0009 22.9136C17.5258 22.3817 18.2685 21.1642 18.8881 19.8015C17.9125 19.8015 16.9633 19.8015 16.0009 19.8015ZM12.1249 19.8059C12.4062 20.6455 13.0961 21.6916 13.7333 22.2411C14.0805 22.54 14.4628 22.7861 14.9287 22.8872C14.9287 21.8587 14.9287 20.8345 14.9287 19.8059C13.9926 19.8059 13.0654 19.8059 12.1249 19.8059ZM12.2875 22.2763C12.0458 21.8938 11.7866 21.5246 11.5756 21.129C11.3647 20.7334 11.2065 20.3114 11.0131 19.9026C10.9911 19.8543 10.9033 19.8059 10.8461 19.8015C10.4067 19.7927 9.96722 19.7971 9.53217 19.7971C9.41351 19.7971 9.29486 19.7971 9.16302 19.7971C9.69037 20.6719 11.312 21.951 12.2875 22.2763ZM18.7211 22.2719C19.9516 21.7312 20.9975 20.9136 21.8588 19.7971C21.2524 19.7971 20.6767 19.7927 20.1054 19.8015C20.0615 19.8015 19.9999 19.8631 19.978 19.907C19.8681 20.1444 19.789 20.3993 19.6616 20.6323C19.3583 21.1905 19.0287 21.7356 18.7211 22.2719Z" fill="#080808"/>
<path d="M16.0273 6.01245C16.3525 6.05641 16.6733 6.09597 16.9985 6.14871C18.6332 6.42564 20.0834 7.10696 21.3535 8.17069C22.0082 8.72014 22.5707 9.35311 23.0322 10.074C23.1113 10.1971 23.1992 10.2454 23.3442 10.2366C23.5463 10.2234 23.7529 10.2278 23.9594 10.2322C24.2714 10.241 24.4999 10.4652 24.4999 10.7597C24.4999 11.0542 24.267 11.274 23.955 11.2828C23.9023 11.2828 23.8495 11.2828 23.7968 11.2828C18.2685 11.2828 12.7402 11.2828 7.21185 11.2872C6.88666 11.2872 6.64496 11.1993 6.50433 10.896C6.50433 10.8037 6.50433 10.707 6.50433 10.6146C6.64496 10.3114 6.88666 10.1927 7.21185 10.2278C7.31732 10.2366 7.42279 10.2146 7.52826 10.2322C7.77875 10.2718 7.91498 10.1575 8.06 9.95091C9.44427 7.93773 11.3427 6.67619 13.7421 6.18388C14.1376 6.10476 14.5375 6.06959 14.9374 6.01245C15.3022 6.01245 15.6625 6.01245 16.0273 6.01245ZM16.0053 7.14212C16.0053 8.17948 16.0053 9.20366 16.0053 10.219C16.9677 10.219 17.9169 10.219 18.8793 10.219C18.4882 9.28718 17.9828 8.44762 17.2226 7.79267C16.871 7.48937 16.4799 7.24762 16.0053 7.14212ZM14.9286 10.2278C14.9286 9.19047 14.9286 8.17069 14.9286 7.14652C13.6542 7.40586 12.5117 9.08058 12.1425 10.2278C13.0654 10.2278 13.9882 10.2278 14.9286 10.2278ZM9.14105 10.2322C9.75189 10.2322 10.3188 10.2366 10.8857 10.2278C10.934 10.2278 11.0043 10.1531 11.0307 10.096C11.3295 9.50696 11.6108 8.91355 11.9184 8.32893C12.0239 8.12674 12.1777 7.95091 12.3403 7.71795C11.0395 8.29817 9.99799 9.11575 9.14105 10.2322ZM18.6772 7.75751C19.2441 8.48718 19.6572 9.29597 19.9955 10.1487C20.0131 10.1927 20.101 10.2278 20.1581 10.2278C20.6855 10.2322 21.2128 10.2322 21.7402 10.2322C21.7709 10.2322 21.8017 10.2234 21.85 10.219C20.9931 9.11135 19.9472 8.29377 18.6772 7.75751Z" fill="#080808"/>
<path d="M6.49994 12.7992C6.55267 12.7244 6.59222 12.6365 6.65814 12.5706C6.92621 12.3025 7.3349 12.3816 7.51947 12.7376C7.84906 13.3882 8.17426 14.0431 8.50385 14.6981C8.53021 14.7464 8.55658 14.7948 8.61371 14.8387C8.61371 14.7816 8.61371 14.7288 8.61371 14.6717C8.61371 14.1091 8.61371 13.5464 8.61371 12.9838C8.61371 12.6409 8.83344 12.408 9.14105 12.408C9.44867 12.408 9.664 12.6453 9.664 12.9882C9.664 14.3596 9.664 15.731 9.664 17.1025C9.664 17.4058 9.51019 17.608 9.24213 17.6695C9.00043 17.7222 8.77631 17.6036 8.64447 17.3442C8.31928 16.6981 7.99408 16.0475 7.66888 15.397C7.64252 15.3442 7.61615 15.2959 7.56781 15.2036C7.56342 15.2959 7.55463 15.3442 7.55463 15.3926C7.55463 15.9552 7.55463 16.5178 7.55463 17.0805C7.55463 17.4014 7.40521 17.608 7.13715 17.6695C6.88666 17.7266 6.67133 17.6036 6.52631 17.3178C6.52191 17.3091 6.50873 17.3047 6.49994 17.2959C6.49994 15.8014 6.49994 14.2981 6.49994 12.7992Z" fill="#080808"/>
<path d="M18.5453 15.5906C18.7607 14.729 18.976 13.8675 19.1913 13.006C19.2089 12.94 19.2221 12.8697 19.2441 12.8038C19.3364 12.5136 19.6132 12.3554 19.8857 12.4301C20.1669 12.5092 20.3295 12.7774 20.2592 13.0719C20.0922 13.7532 19.9208 14.4345 19.7494 15.1158C19.5737 15.8191 19.4023 16.5224 19.2221 17.2257C19.1122 17.6565 18.6684 17.8235 18.3608 17.5554C18.2817 17.4851 18.2245 17.384 18.1718 17.2829C18.0004 16.9576 17.8378 16.6235 17.6752 16.2939C17.6708 16.2851 17.6576 16.2807 17.6357 16.2587C17.6093 16.3027 17.5829 16.3422 17.561 16.3862C17.4028 16.6983 17.249 17.0147 17.0864 17.3268C16.9545 17.5862 16.7612 17.7005 16.5326 17.6741C16.2909 17.6433 16.1283 17.4939 16.0624 17.2169C15.7197 15.8499 15.3769 14.4829 15.0385 13.1158C14.955 12.7686 15.1088 12.4961 15.4164 12.4169C15.7065 12.3466 15.9745 12.5312 16.058 12.8653C16.269 13.7092 16.4799 14.5576 16.6908 15.4016C16.704 15.4631 16.7216 15.5202 16.7524 15.6301C16.8754 15.384 16.9809 15.1818 17.082 14.9752C17.1962 14.729 17.3368 14.518 17.6401 14.518C17.9477 14.518 18.0839 14.7334 18.1982 14.9796C18.2949 15.1862 18.4003 15.384 18.5014 15.5906C18.5234 15.595 18.5365 15.5906 18.5453 15.5906Z" fill="#080808"/>
<path d="M11.7822 15.5773C11.7822 15.9378 11.7822 16.2762 11.7822 16.6323C11.8525 16.6323 11.914 16.6323 11.9755 16.6323C12.437 16.6323 12.9028 16.6279 13.3642 16.6367C13.6586 16.641 13.8784 16.8696 13.8828 17.1509C13.8871 17.4323 13.6718 17.6784 13.3818 17.6828C12.6611 17.6916 11.9404 17.6916 11.2197 17.6828C10.912 17.6784 10.7187 17.441 10.7187 17.1026C10.7187 15.7356 10.7187 14.3729 10.7187 13.0059C10.7187 13.0015 10.7187 12.9927 10.7187 12.9883C10.7231 12.6323 10.934 12.4169 11.2856 12.4125C11.9667 12.4081 12.6435 12.4081 13.3246 12.4125C13.6498 12.4125 13.8828 12.641 13.8828 12.9443C13.8784 13.2432 13.6454 13.463 13.3159 13.4674C12.8632 13.4718 12.415 13.4674 11.9623 13.4674C11.9052 13.4674 11.8481 13.4674 11.7822 13.4674C11.7822 13.8191 11.7822 14.1575 11.7822 14.5224C11.8349 14.5224 11.892 14.5224 11.9448 14.5224C12.3974 14.5224 12.8456 14.5224 13.2983 14.5224C13.6411 14.5224 13.8784 14.7378 13.8784 15.0454C13.8784 15.3531 13.6454 15.5729 13.3027 15.5729C12.8017 15.5773 12.3007 15.5773 11.7822 15.5773Z" fill="#080808"/>
<path d="M22.8827 12.4124C23.7748 12.4124 24.4867 13.1157 24.4999 13.9728C24.5043 14.2585 24.289 14.4959 24.0121 14.5178C23.7265 14.5398 23.476 14.3288 23.454 14.0299C23.4364 13.7926 23.3486 13.608 23.1288 13.5113C22.9267 13.4233 22.7333 13.4585 22.5751 13.6036C22.4169 13.7486 22.3598 13.9332 22.4257 14.1442C22.496 14.3684 22.6586 14.4959 22.8871 14.5135C23.1816 14.5354 23.4628 14.5926 23.7265 14.742C24.2934 15.0673 24.601 15.7574 24.4692 16.4299C24.3461 17.0497 23.7924 17.5772 23.1772 17.6563C22.2148 17.7838 21.4281 17.1508 21.349 16.1838C21.3227 15.8629 21.5248 15.6036 21.8281 15.5772C22.1269 15.5508 22.3686 15.7706 22.3993 16.0915C22.4345 16.4607 22.7201 16.6893 23.0409 16.6146C23.2958 16.553 23.4672 16.3288 23.454 16.0739C23.4408 15.8058 23.2387 15.5948 22.9574 15.5772C22.5663 15.5552 22.206 15.4541 21.9072 15.1904C21.4238 14.7552 21.2392 14.2189 21.4106 13.5904C21.5864 12.9354 22.0302 12.5486 22.7026 12.4343C22.7685 12.4255 22.8432 12.4167 22.8827 12.4124Z" fill="#080808"/>
</svg>