<svg xmlns="http://www.w3.org/2000/svg" width="23" height="22" viewBox="0 0 23 22" fill="none">
<path d="M10.6157 1.81994C10.9824 1.07605 12.0431 1.07605 12.4097 1.81994L14.6881 6.44276C14.8338 6.73833 15.1157 6.94316 15.4418 6.99037L20.5001 7.72264C21.3194 7.84125 21.6481 8.84709 21.0568 9.42652L17.3802 13.0297C17.146 13.2592 17.0392 13.5889 17.0944 13.9121L17.9618 18.9969C18.1013 19.8149 17.2412 20.4372 16.5078 20.0487L11.9809 17.6502C11.6881 17.4951 11.3374 17.4951 11.0446 17.6502L6.5176 20.0487C5.78427 20.4372 4.92412 19.8149 5.06367 18.9969L5.93081 13.9135C5.98608 13.5896 5.87861 13.2591 5.64334 13.0296L1.95153 9.42814C1.35803 8.84917 1.68639 7.84098 2.50701 7.72258L7.5833 6.99016C7.9096 6.94308 8.19173 6.7382 8.33748 6.44249L10.6157 1.81994Z" stroke="#9599A2" stroke-width="2" stroke-miterlimit="10"/>
</svg>