<svg xmlns="http://www.w3.org/2000/svg" width="19" height="16" viewBox="0 0 19 16" fill="none">
<path d="M18.3235 0.904885C18.3235 5.64034 18.3235 10.3758 18.3235 15.1113C18.2029 15.4094 17.9875 15.5146 17.6729 15.5146C12.2229 15.5103 6.77279 15.5103 1.32271 15.5103C0.857404 15.5103 0.676453 15.3261 0.676453 14.8526C0.676453 10.2969 0.676453 5.74557 0.676453 1.18989C0.676453 0.698805 0.853096 0.519033 1.34425 0.519033C6.77279 0.519033 12.2013 0.519033 17.6299 0.514648C17.9487 0.514648 18.1856 0.602342 18.3235 0.904885ZM17.2766 12.4848C17.2766 9.50325 17.2766 6.53043 17.2766 3.55323C12.085 3.55323 6.90204 3.55323 1.72338 3.55323C1.72338 6.5392 1.72338 9.51202 1.72338 12.4848C6.91496 12.4848 12.0893 12.4848 17.2766 12.4848ZM1.72338 1.57574C1.72338 1.88705 1.72338 2.18083 1.72338 2.47022C2.30932 2.47022 2.88664 2.47022 3.45966 2.47022C3.45966 2.16329 3.45966 1.86952 3.45966 1.57574C2.87372 1.57574 2.30501 1.57574 1.72338 1.57574ZM6.23855 1.58013C5.65692 1.58013 5.09253 1.58013 4.51951 1.58013C4.51951 1.88267 4.51951 2.17644 4.51951 2.4746C5.09683 2.4746 5.66123 2.4746 6.23855 2.4746C6.23855 2.17644 6.23855 1.88705 6.23855 1.58013ZM14.5408 2.47899C14.5408 2.17644 14.5408 1.87828 14.5408 1.58451C13.9634 1.58451 13.3991 1.58451 12.826 1.58451C12.826 1.88705 12.826 2.18083 12.826 2.47899C13.4034 2.47899 13.9678 2.47899 14.5408 2.47899ZM3.46396 13.5547C2.87372 13.5547 2.2964 13.5547 1.72338 13.5547C1.72338 13.8616 1.72338 14.1554 1.72338 14.4492C2.30932 14.4492 2.88233 14.4492 3.46396 14.4492C3.46396 14.1466 3.46396 13.8572 3.46396 13.5547ZM6.23424 13.5503C5.65261 13.5503 5.08822 13.5503 4.5152 13.5503C4.5152 13.8529 4.5152 14.1466 4.5152 14.4448C5.09253 14.4448 5.65692 14.4448 6.23424 14.4448C6.23424 14.1466 6.23424 13.8572 6.23424 13.5503ZM14.5408 13.5503C13.9634 13.5503 13.3991 13.5503 12.8217 13.5503C12.8217 13.8529 12.8217 14.1466 12.8217 14.4492C13.3991 14.4492 13.9634 14.4492 14.5408 14.4492C14.5408 14.151 14.5408 13.8616 14.5408 13.5503ZM9.00452 2.47899C9.00452 2.17206 9.00452 1.87828 9.00452 1.58013C8.4272 1.58013 7.8628 1.58013 7.2941 1.58013C7.2941 1.88267 7.2941 2.17644 7.2941 2.47899C7.86711 2.47899 8.4272 2.47899 9.00452 2.47899ZM10.0558 2.4746C10.6374 2.4746 11.2018 2.4746 11.7662 2.4746C11.7662 2.16767 11.7662 1.8739 11.7662 1.58451C11.1889 1.58451 10.6245 1.58451 10.0558 1.58451C10.0558 1.88267 10.0558 2.17206 10.0558 2.4746ZM9.00452 14.4492C9.00452 14.1422 9.00452 13.8529 9.00452 13.5591C8.4272 13.5591 7.8585 13.5591 7.28979 13.5591C7.28979 13.8616 7.28979 14.151 7.28979 14.4492C7.86711 14.4492 8.43151 14.4492 9.00452 14.4492ZM10.0601 13.5503C10.0601 13.8616 10.0601 14.151 10.0601 14.4492C10.6331 14.4492 11.1975 14.4492 11.7662 14.4492C11.7662 14.1422 11.7662 13.8485 11.7662 13.5503C11.1932 13.5503 10.6331 13.5503 10.0601 13.5503ZM17.2809 1.58013C16.7122 1.58013 16.1607 1.58013 15.6006 1.58013C15.6006 1.88267 15.6006 2.17644 15.6006 2.4746C16.165 2.4746 16.7208 2.4746 17.2809 2.4746C17.2809 2.17644 17.2809 1.88705 17.2809 1.58013ZM15.5963 14.4448C16.165 14.4448 16.7208 14.4448 17.2809 14.4448C17.2809 14.1422 17.2809 13.8529 17.2809 13.5547C16.7165 13.5547 16.1607 13.5547 15.5963 13.5547C15.5963 13.8572 15.5963 14.1466 15.5963 14.4448Z" fill="#DEDEDE"/>
<path d="M7.3113 8.01689C7.3113 7.46003 7.32853 6.90756 7.30699 6.35071C7.28545 5.69739 7.92309 5.39046 8.41855 5.68862C9.38793 6.27617 10.3702 6.84618 11.3439 7.42934C11.8049 7.70557 11.8049 8.31504 11.3482 8.59128C10.3832 9.17444 9.40947 9.74884 8.43578 10.3232C7.99202 10.5819 7.5181 10.4372 7.363 10.0031C7.32422 9.89791 7.31561 9.77514 7.31561 9.66114C7.3113 9.11744 7.3113 8.56497 7.3113 8.01689ZM8.35823 6.87687C8.35823 7.65296 8.35823 8.38958 8.35823 9.1569C9.00448 8.77544 9.6292 8.40274 10.2798 8.01689C9.63351 7.63103 9.0131 7.26272 8.35823 6.87687Z" fill="#DEDEDE"/>
</svg>