<svg xmlns="http://www.w3.org/2000/svg" width="31" height="31" viewBox="0 0 31 31" fill="none">
<rect x="0.5" y="0.00634766" width="30" height="30" rx="15" fill="white"/>
<path d="M24.3235 7.89658C24.3235 12.632 24.3235 17.3675 24.3235 22.103C24.2029 22.4011 23.9875 22.5063 23.6729 22.5063C18.2229 22.502 12.7728 22.502 7.32271 22.502C6.8574 22.502 6.67645 22.3178 6.67645 21.8443C6.67645 17.2886 6.67645 12.7373 6.67645 8.18159C6.67645 7.6905 6.8531 7.51073 7.34425 7.51073C12.7728 7.51073 18.2013 7.51073 23.6299 7.50635C23.9487 7.50635 24.1856 7.59404 24.3235 7.89658ZM23.2766 19.4765C23.2766 16.4949 23.2766 13.5221 23.2766 10.5449C18.085 10.5449 12.902 10.5449 7.72339 10.5449C7.72339 13.5309 7.72339 16.5037 7.72339 19.4765C12.915 19.4765 18.0893 19.4765 23.2766 19.4765ZM7.72339 8.56744C7.72339 8.87875 7.72339 9.17253 7.72339 9.46192C8.30932 9.46192 8.88664 9.46192 9.45966 9.46192C9.45966 9.15499 9.45966 8.86121 9.45966 8.56744C8.87372 8.56744 8.30501 8.56744 7.72339 8.56744ZM12.2386 8.57183C11.6569 8.57183 11.0925 8.57183 10.5195 8.57183C10.5195 8.87437 10.5195 9.16814 10.5195 9.4663C11.0968 9.4663 11.6612 9.4663 12.2386 9.4663C12.2386 9.16814 12.2386 8.87875 12.2386 8.57183ZM20.5408 9.47069C20.5408 9.16814 20.5408 8.86998 20.5408 8.57621C19.9634 8.57621 19.3991 8.57621 18.826 8.57621C18.826 8.87875 18.826 9.17253 18.826 9.47069C19.4034 9.47069 19.9678 9.47069 20.5408 9.47069ZM9.46396 20.5464C8.87372 20.5464 8.2964 20.5464 7.72339 20.5464C7.72339 20.8533 7.72339 21.1471 7.72339 21.4409C8.30932 21.4409 8.88233 21.4409 9.46396 21.4409C9.46396 21.1383 9.46396 20.8489 9.46396 20.5464ZM12.2342 20.542C11.6526 20.542 11.0882 20.542 10.5152 20.542C10.5152 20.8446 10.5152 21.1383 10.5152 21.4365C11.0925 21.4365 11.6569 21.4365 12.2342 21.4365C12.2342 21.1383 12.2342 20.8489 12.2342 20.542ZM20.5408 20.542C19.9634 20.542 19.3991 20.542 18.8217 20.542C18.8217 20.8446 18.8217 21.1383 18.8217 21.4409C19.3991 21.4409 19.9634 21.4409 20.5408 21.4409C20.5408 21.1427 20.5408 20.8533 20.5408 20.542ZM15.0045 9.47069C15.0045 9.16376 15.0045 8.86998 15.0045 8.57183C14.4272 8.57183 13.8628 8.57183 13.2941 8.57183C13.2941 8.87437 13.2941 9.16814 13.2941 9.47069C13.8671 9.47069 14.4272 9.47069 15.0045 9.47069ZM16.0558 9.4663C16.6374 9.4663 17.2018 9.4663 17.7662 9.4663C17.7662 9.15937 17.7662 8.8656 17.7662 8.57621C17.1889 8.57621 16.6245 8.57621 16.0558 8.57621C16.0558 8.87437 16.0558 9.16376 16.0558 9.4663ZM15.0045 21.4409C15.0045 21.1339 15.0045 20.8446 15.0045 20.5508C14.4272 20.5508 13.8585 20.5508 13.2898 20.5508C13.2898 20.8533 13.2898 21.1427 13.2898 21.4409C13.8671 21.4409 14.4315 21.4409 15.0045 21.4409ZM16.0601 20.542C16.0601 20.8533 16.0601 21.1427 16.0601 21.4409C16.6331 21.4409 17.1975 21.4409 17.7662 21.4409C17.7662 21.1339 17.7662 20.8402 17.7662 20.542C17.1932 20.542 16.6331 20.542 16.0601 20.542ZM23.2809 8.57183C22.7122 8.57183 22.1607 8.57183 21.6006 8.57183C21.6006 8.87437 21.6006 9.16814 21.6006 9.4663C22.165 9.4663 22.7208 9.4663 23.2809 9.4663C23.2809 9.16814 23.2809 8.87875 23.2809 8.57183ZM21.5963 21.4365C22.165 21.4365 22.7208 21.4365 23.2809 21.4365C23.2809 21.1339 23.2809 20.8446 23.2809 20.5464C22.7165 20.5464 22.1607 20.5464 21.5963 20.5464C21.5963 20.8489 21.5963 21.1383 21.5963 21.4365Z" fill="#080808"/>
<path d="M13.3113 15.0086C13.3113 14.4517 13.3285 13.8993 13.307 13.3424C13.2854 12.6891 13.9231 12.3822 14.4185 12.6803C15.3879 13.2679 16.3702 13.8379 17.3439 14.421C17.8049 14.6973 17.8049 15.3067 17.3482 15.583C16.3832 16.1661 15.4095 16.7405 14.4358 17.3149C13.992 17.5736 13.5181 17.4289 13.363 16.9948C13.3242 16.8896 13.3156 16.7668 13.3156 16.6528C13.3113 16.1091 13.3113 15.5567 13.3113 15.0086ZM14.3582 13.8686C14.3582 14.6447 14.3582 15.3813 14.3582 16.1486C15.0045 15.7671 15.6292 15.3944 16.2798 15.0086C15.6335 14.6227 15.0131 14.2544 14.3582 13.8686Z" fill="#080808"/>
</svg>